<?xml version="1.0" encoding="utf-8"?>
<!-- Generator: Adobe Illustrator 27.0.0, SVG Export Plug-In . SVG Version: 6.00 Build 0)  -->
<svg version="1.1" id="Layer_1" xmlns="http://www.w3.org/2000/svg" xmlns:xlink="http://www.w3.org/1999/xlink" x="0px" y="0px"
	 viewBox="0 0 230 100" enable-background="new 0 0 230 100" xml:space="preserve">
<g>
	<g>
		<linearGradient id="SVGID_1_" gradientUnits="userSpaceOnUse" x1="4.9418" y1="50" x2="97.3848" y2="50">
			<stop  offset="0" style="stop-color:#009356"/>
			<stop  offset="1" style="stop-color:#084E97"/>
		</linearGradient>
		<path fill="url(#SVGID_1_)" d="M33.69,94.97h34.69c0,0,6.49,0.75,10.73-5.74c4.24-6.49,16.72-28.7,16.72-28.7s4.99-6.99-3-17.47
			c0,0,3.27-8.49-11.09-18.22c0,0-0.64-6.99-9.37-10.98c-5.74-3.49-8.24-11.48-21.72-7.99s-25.46,6.99-25.46,6.99
			s-9.48,0.75-12.98,13.73S4.99,53.79,4.99,53.79s-0.75,8.99,3.74,12.98s7.24,6.99,7.24,6.99l8.74,14.48
			C24.71,88.23,26.7,93.23,33.69,94.97z"/>
		
			<linearGradient id="SVGID_00000045593888116452159360000018332494590989353381_" gradientUnits="userSpaceOnUse" x1="6.7765" y1="53.077" x2="92.8488" y2="53.077">
			<stop  offset="0" style="stop-color:#20B68E"/>
			<stop  offset="0.4962" style="stop-color:#44C2CF"/>
			<stop  offset="1" style="stop-color:#0C83C6"/>
		</linearGradient>
		<path fill="url(#SVGID_00000045593888116452159360000018332494590989353381_)" d="M9.57,45.94l13.94-24.57
			c0,0,3.59-8.5,14.87-8.37s28.74,0,28.74,0s11.79,5.06,18.99,17.87c6.73,12.17,6.73,12.17,6.73,12.17l-8.33,30.8
			c0,0-0.64,8.18-10.9,11.07c-10.26,2.89-28.71,7.7-28.71,7.7s-9.14,3.21-17.16-6.25c-6.9-6.58-11.39-12.03-13.95-16.52
			S2.3,56.36,9.57,45.94z"/>
		
			<linearGradient id="SVGID_00000031915462390148964480000014208118373584884625_" gradientUnits="userSpaceOnUse" x1="84.4848" y1="48.7976" x2="36.8342" y2="48.7976">
			<stop  offset="0" style="stop-color:#FFFFFF"/>
			<stop  offset="1" style="stop-color:#FFFFFF;stop-opacity:0"/>
		</linearGradient>
		<path fill="url(#SVGID_00000031915462390148964480000014208118373584884625_)" d="M31.53,14.17c0,0,5.18-6.73,19.64-6.4
			c14.46,0.33,26.63,2.86,30.59,26.52c1.1,1.02,1.02,1.34,0,2.51c-1.02,1.17-1.55,6.16,2.38,9.55c3.93,3.4,5.2,4.67,0.64,8.07
			c-0.53,2.87-0.11,3.61-0.11,3.61s1.7,1.27-1.06,1.91C83.49,61,83.49,61,83.49,61s3.29,1.91-0.96,3.5
			c-0.64,0.42-0.53,2.02,0.11,3.29c0.64,1.27,2.02,6.26-5.52,5.94s-13.05-0.74-16.56,9.45c-1.91,5.2-0.71,7.65-9.88,6.27
			s-15.32-3.08-15.32-3.08"/>
	</g>
	<g>
		<g>
			<g>
				<g>
					
						<linearGradient id="SVGID_00000111897632229211653890000003141725144014947981_" gradientUnits="userSpaceOnUse" x1="41.8214" y1="25.4963" x2="81.3105" y2="94.4228">
						<stop  offset="0" style="stop-color:#FFFFFF"/>
						<stop  offset="1" style="stop-color:#FFFFFF;stop-opacity:0"/>
					</linearGradient>
					<path fill="url(#SVGID_00000111897632229211653890000003141725144014947981_)" d="M38.89,29.88c-0.15,0.24-0.27,0.5-0.37,0.8
						c0.13-0.22,0.24-0.41,0.35-0.6c0.01,0,0.02,0.01,0.03,0.01c-0.01,0.05-0.02,0.1-0.03,0.16c0,0.01,0,0.02-0.01,0.03
						c-0.32,1.4-0.4,2.83-0.26,4.26l0.29,3c0.03,0.3,0.05,0.59,0.07,0.89c0.1,1.46,0.72,2.84,1.88,4.19
						c0.03,0.04,0.06,0.09,0.08,0.14c0.41,1.28,1,2.32,1.83,3.16c1.24,1.27,2.71,1.95,4.25,1.95h0c1.54,0,3-0.67,4.24-1.93
						c0.79-0.81,1.37-1.8,1.79-3.02c0.05-0.14,0.13-0.29,0.24-0.41c1.2-1.46,1.79-2.94,1.79-4.52c0-0.11,0-0.22,0-0.33l0.02-5.45
						c-0.03-0.18-0.05-0.36-0.08-0.55c0.03,0.07,0.06,0.15,0.08,0.21c0.05,0.13,0.1,0.25,0.14,0.37c0.07,0.19,0.12,0.37,0.19,0.56
						c0-0.04,0-0.07-0.01-0.1c-0.12-0.59-0.27-1.17-0.53-1.72c-0.02-0.04-0.04-0.09-0.06-0.13c0,0,0,0,0,0
						c-0.04-0.08-0.07-0.16-0.1-0.24c-0.09-0.23-0.17-0.47-0.26-0.7c-0.06-0.18-0.13-0.36-0.19-0.53c-0.01-0.03-0.02-0.06-0.04-0.1
						c0.01-0.01,0.03-0.01,0.04-0.02c0.22,0.35,0.44,0.69,0.66,1.04c-0.03-0.12-0.08-0.23-0.12-0.35c-0.2-0.48-0.46-0.93-0.84-1.29
						c-0.08-0.08-0.15-0.16-0.22-0.25c-0.39-0.58-0.86-1.08-1.5-1.38c-0.02-0.01-0.04-0.02-0.06-0.03c-0.3-0.13-0.59-0.26-0.89-0.38
						c-0.07-0.03-0.15-0.06-0.22-0.1c0.15,0.01,0.3,0.03,0.45,0.05c0.84,0.13,1.63,0.41,2.4,0.77c-0.03-0.03-0.06-0.05-0.1-0.08
						c-0.92-0.62-1.96-0.94-3.05-1.07c-0.04,0-0.08-0.01-0.13-0.01c-0.37-0.04-0.74-0.05-1.09-0.19c-0.14-0.06-0.29-0.08-0.43-0.12
						c-0.17-0.04-0.33-0.08-0.5-0.13c-0.04-0.01-0.08-0.02-0.12-0.03c0-0.02,0-0.01,0-0.04h1.9c-0.01-0.04-0.03-0.05-0.05-0.05
						c-0.83-0.12-1.65-0.21-2.49-0.13c-0.29,0.03-0.57,0.04-0.85,0c-0.13-0.02-0.25-0.02-0.38-0.03c0-0.02,0-0.02,0-0.04
						c0.62-0.12,1.24-0.23,1.89-0.35c-0.66,0.02-1.28,0.06-1.89,0.17c-0.34,0.06-0.68,0.17-1.02,0.21
						c-0.49,0.06-0.99,0.09-1.49,0.13c0.98-0.47,2.03-0.67,3.1-0.79c-0.2,0.01-0.4,0-0.6,0.01c-0.74,0.04-1.48,0.13-2.2,0.32
						c-0.6,0.16-1.16,0.39-1.65,0.79c-0.09,0.07-0.2,0.13-0.31,0.19c-0.01-0.02-0.02-0.03-0.03-0.05c0.22-0.16,0.44-0.34,0.67-0.48
						c0.24-0.15,0.49-0.28,0.74-0.4c0.25-0.12,0.5-0.21,0.75-0.31c-0.5,0.13-0.98,0.3-1.44,0.53c-0.92,0.45-1.61,1.2-2.4,1.82
						c0,0,0,0,0,0c-0.05,0.08-0.11,0.16-0.15,0.25c-0.07,0.13-0.12,0.26-0.19,0.39c-0.03,0.06-0.11,0.09-0.17,0.12
						c-0.13,0.05-0.27,0.08-0.4,0.14c-0.68,0.31-1.09,0.84-1.26,1.56c0.16-0.33,0.37-0.62,0.67-0.89c-0.08,0.28-0.15,0.53-0.23,0.78
						C39,29.68,38.95,29.79,38.89,29.88L38.89,29.88z M40.55,37.6l0.01-0.09c0.01-0.08,0.01-0.18,0.03-0.25
						c0.38-0.13,0.61-0.49,0.62-1.01c0.01-0.37,0.01-0.74,0.01-1.1c0-0.4,0.01-0.81,0.02-1.22c0-0.68,0.55-1.23,1.23-1.23
						c0.01,0,0.02,0,0.04,0l0.62,0.02c0.51-0.04,1.02-0.04,1.54-0.04c0.46-0.01,0.92,0,1.38,0h1.35c0.49,0,0.98,0,1.48,0
						c0.36,0,0.73-0.01,1.09-0.01c0.31,0,0.63,0,0.94,0c0.31,0,0.61-0.01,0.91,0.08c0.35,0.11,0.61,0.31,0.76,0.63
						c0.1,0.21,0.14,0.44,0.21,0.65c0,0,0.01-0.01,0.01-0.01c0.01,0.35,0.01,0.71,0.01,1.07c0,0.32,0,0.65,0.01,0.98
						c0,0.09,0,0.18,0,0.27v0.18c0,0.37,0.26,0.68,0.62,0.75c0.01,0.07,0.02,0.16,0.03,0.2c0.15,1.41-0.29,2.69-1.4,4.03
						c-0.23,0.28-0.41,0.59-0.51,0.91c-0.34,1-0.8,1.79-1.42,2.43c-0.93,0.95-2,1.46-3.1,1.46h0c-1.11,0-2.19-0.51-3.12-1.47
						c-0.65-0.67-1.12-1.5-1.46-2.54c-0.08-0.25-0.21-0.49-0.38-0.69C40.9,40.27,40.43,39,40.55,37.6L40.55,37.6z"/>
					
						<linearGradient id="SVGID_00000004503791413442483580000001673125707020473022_" gradientUnits="userSpaceOnUse" x1="35.9232" y1="28.8756" x2="75.4123" y2="97.802">
						<stop  offset="0" style="stop-color:#FFFFFF"/>
						<stop  offset="1" style="stop-color:#FFFFFF;stop-opacity:0"/>
					</linearGradient>
					<path fill="url(#SVGID_00000004503791413442483580000001673125707020473022_)" d="M55.13,59.93c0.89,0.27,1.39,1.22,1.12,2.1
						c-0.27,0.89-1.22,1.39-2.1,1.12c-0.89-0.27-1.39-1.22-1.12-2.1C53.3,60.15,54.24,59.65,55.13,59.93"/>
				</g>
			</g>
		</g>
		
			<linearGradient id="SVGID_00000023248296528710417840000007349357478388069803_" gradientUnits="userSpaceOnUse" x1="35.9225" y1="28.8759" x2="75.4116" y2="97.8024">
			<stop  offset="0" style="stop-color:#FFFFFF"/>
			<stop  offset="1" style="stop-color:#FFFFFF;stop-opacity:0"/>
		</linearGradient>
		<path fill="url(#SVGID_00000023248296528710417840000007349357478388069803_)" d="M55.47,58.82c-1.5-0.46-3.09,0.38-3.55,1.88
			c-0.46,1.5,0.38,3.09,1.88,3.55c1.5,0.46,3.09-0.38,3.55-1.88l0,0C57.81,60.88,56.97,59.28,55.47,58.82z"/>
		
			<linearGradient id="SVGID_00000026852609858629167630000018119208862659927469_" gradientUnits="userSpaceOnUse" x1="28.6368" y1="33.0501" x2="68.1259" y2="101.9765">
			<stop  offset="0" style="stop-color:#FFFFFF"/>
			<stop  offset="1" style="stop-color:#FFFFFF;stop-opacity:0"/>
		</linearGradient>
		<path fill="url(#SVGID_00000026852609858629167630000018119208862659927469_)" d="M64.25,69.9L64.25,69.9L63.4,59.71l0-0.02
			c-0.58-4.75-3.35-7.68-8.23-8.69c-0.27-0.06-0.68-0.34-1.09-0.76c-0.39-0.39-0.79-0.9-1.07-1.43l-1.12,1.45l-3.64,5.69l-0.2-2.43
			v0L48,53.23l0.76-0.76v0l0.13-0.13c0.38-0.38,0.45-0.98,0.14-1.42c-0.31-0.44-0.82-0.73-1.4-0.73h-1.31
			c-0.58,0-1.09,0.29-1.4,0.73c-0.31,0.44-0.24,1.04,0.14,1.42l0.89,0.89l-0.02,0.18l-0.21,2.55l-3.64-5.69l-1.12-1.45
			c-0.28,0.53-0.68,1.04-1.07,1.43c-0.41,0.41-0.82,0.7-1.09,0.76c-0.76,0.16-1.47,0.36-2.13,0.61c-0.44,0.17-0.86,0.35-1.25,0.56
			c-2.8,1.48-4.43,3.99-4.85,7.51l-0.86,10.34l0,0.04c-0.05,0.9,0.24,1.34,1.08,1.66c0.14,0.05,0.3,0.12,0.48,0.18l0.16-1.78h0
			l0.85-10.25c0.33-2.71,1.48-4.67,3.48-5.91c0.08,0.36,0.14,0.64,0.19,0.79c0.06,0.2,0.13,0.41,0.2,0.63l0.01,0.02
			c0.12,0.36,0.26,0.81,0.4,1.32c-1.71,0.8-2.72,2.41-2.58,3.16c-0.74,1.04-1.06,2.32-0.94,3.69c0.03,0.31,0.19,0.59,0.44,0.76
			c0.02,0.14,0.05,0.27,0.08,0.4c0.29,1.34,0.91,2.54,1.74,3.37c0.45,0.46,0.96,0.78,1.5,0.97c0.13,0.54,0.65,0.89,1.17,0.77
			c0.53-0.12,1.25-0.72,1.12-1.29C38.91,68,38,67.75,37.48,67.86c-0.14,0.03-0.28,0.09-0.39,0.19c-1.32-0.46-2.22-2.09-2.53-3.53
			c-0.01-0.06-0.02-0.12-0.03-0.18c0.28-0.2,0.44-0.55,0.41-0.91c-0.18-1.98,1-3.39,3.31-3.99l0.01,0l0.01,0
			c2.5-0.56,4.33,0.23,5.02,2.18c0.12,0.34,0.41,0.59,0.75,0.66c0.01,0.06,0.03,0.12,0.04,0.17c0.31,1.44,0.17,3.3-0.83,4.27
			c-0.14-0.04-0.29-0.04-0.43-0.01c-0.53,0.12-1.25,0.72-1.12,1.29c0.12,0.57,1.03,0.82,1.56,0.71c0.52-0.11,0.85-0.64,0.74-1.19
			c0.41-0.4,0.73-0.9,0.96-1.51c0.41-1.11,0.47-2.45,0.18-3.79c-0.03-0.13-0.06-0.26-0.1-0.4c0.03-0.05,0.06-0.11,0.08-0.17
			c0.08-0.22,0.08-0.47,0-0.7c-0.47-1.34-1.33-2.38-2.49-3.02c-0.05-0.03-0.11-0.06-0.16-0.08c-0.01-0.01-0.03-0.02-0.04-0.02
			c-0.29-0.52-1.21-1.2-2.45-1.47c-0.55-0.1-1.4-0.15-2.09-0.05c-0.14-0.53-0.29-0.99-0.4-1.33c-0.06-0.18-0.12-0.34-0.17-0.49
			c-0.02-0.06-0.14-0.58-0.28-1.17c0.63-0.26,1.33-0.47,2.09-0.62c0.62-0.13,1.24-0.55,1.8-1.07l4.56,6.9l-0.01,0.05h0.04l0.76,1.15
			c0.33,0.5,1.07,0.5,1.4,0l0.76-1.15h0.04v-0.03h0l0-0.01l4.56-6.9c0.56,0.53,1.18,0.95,1.8,1.07c0.26,0.05,0.5,0.11,0.74,0.18
			c0.06,0.11,0.13,0.22,0.2,0.35c0.18,0.32,0.29,0.75,0.33,1.26c0.06,0.89-0.11,2.07-0.48,3.27c-2.01-0.52-4.1,0.63-4.71,2.64
			c-0.63,2.06,0.53,4.25,2.59,4.89c2.06,0.63,4.25-0.53,4.89-2.59c0.49-1.6-0.11-3.35-1.46-4.32c0.27-0.88,0.46-2.04,0.48-3.08
			c0.01-0.55-0.01-1.2-0.13-1.82c2.59,1.18,4.04,3.3,4.42,6.42l0.84,10.15c0,0.04,0,0.07,0.01,0.1l0.15,1.78
			c0.12-0.04,0.25-0.09,0.37-0.13C64.05,71.41,64.33,70.97,64.25,69.9z M57.35,62.37L57.35,62.37c-0.46,1.5-2.05,2.34-3.55,1.88
			c-1.5-0.46-2.34-2.05-1.88-3.55c0.46-1.5,2.05-2.34,3.55-1.88C56.97,59.28,57.81,60.88,57.35,62.37z"/>
	</g>
	<g>
		<g>
			<path fill="#FFFFFF" d="M114.87,23.03h18.35v4.85h-12.28v4.35h11.09v4.81l-11.09,0.03v4.38h12.61v4.85h-18.68V23.03z"/>
			<path fill="#FFFFFF" d="M151.15,29.81c1.37,1.14,2.07,2.74,2.09,4.8v11.68h-5.81v-2.02c-1.19,1.53-3,2.29-5.41,2.29
				c-1.9,0-3.4-0.51-4.5-1.54c-1.1-1.03-1.64-2.38-1.64-4.07c0-1.7,0.59-3.03,1.78-3.98c1.18-0.95,2.88-1.44,5.09-1.46h4.68v-0.2
				c0-0.86-0.29-1.53-0.88-1.99c-0.59-0.46-1.43-0.7-2.54-0.7c-0.75,0-1.6,0.12-2.54,0.36c-0.94,0.24-1.89,0.6-2.84,1.06l-1.63-3.98
				c1.46-0.66,2.86-1.16,4.2-1.48c1.34-0.32,2.73-0.48,4.17-0.48C147.85,28.11,149.78,28.68,151.15,29.81z M146.17,41.9
				c0.66-0.43,1.08-0.99,1.26-1.68v-1.56h-3.52c-1.66,0-2.49,0.62-2.49,1.86c0,0.62,0.22,1.11,0.65,1.48
				c0.43,0.36,1.02,0.55,1.78,0.55C144.73,42.54,145.51,42.33,146.17,41.9z"/>
			<path fill="#FFFFFF" d="M165.53,28.93c0.98-0.55,2.11-0.83,3.37-0.83v5.41c-0.2-0.02-0.5-0.03-0.9-0.03
				c-1.39,0-2.52,0.33-3.39,0.98c-0.86,0.65-1.36,1.54-1.49,2.67v9.16h-5.91V28.34h5.91v2.99
				C163.75,30.28,164.55,29.49,165.53,28.93z"/>
			<path fill="#FFFFFF" d="M171.66,21.67h5.91v24.63h-5.91V21.67z"/>
			<path fill="#FFFFFF" d="M189.18,51.79c-1.15,0.81-2.58,1.21-4.28,1.21c-1,0-1.93-0.15-2.79-0.45c-0.86-0.3-1.7-0.77-2.52-1.41
				l2.46-4.08c0.42,0.35,0.82,0.61,1.19,0.76c0.38,0.15,0.77,0.23,1.19,0.23c0.97,0,1.69-0.45,2.16-1.36l0.43-0.83l-7.43-17.52h6.07
				l4.28,11.68l3.82-11.68h5.87l-7.7,19.71C191.25,49.73,190.33,50.98,189.18,51.79z"/>
			<path fill="#FFFFFF" d="M131.35,56.83c1.87,0.97,3.32,2.34,4.36,4.1c1.04,1.76,1.56,3.78,1.56,6.06c0,2.28-0.53,4.3-1.58,6.07
				c-1.05,1.77-2.53,3.14-4.45,4.12c-1.91,0.97-4.11,1.46-6.59,1.46h-9.79V55.37h10.02C127.33,55.37,129.48,55.86,131.35,56.83z
				 M128.18,72.9c0.91-0.55,1.62-1.34,2.12-2.36c0.51-1.02,0.76-2.18,0.76-3.48c0-1.33-0.27-2.5-0.81-3.52
				c-0.54-1.02-1.29-1.81-2.24-2.37c-0.95-0.56-2.04-0.85-3.25-0.85h-3.82v13.41h4.12C126.23,73.73,127.27,73.45,128.18,72.9z"/>
			<path fill="#FFFFFF" d="M154.93,63.07c1.57,1.73,2.36,4.09,2.36,7.1c0,0.46-0.01,0.82-0.03,1.06h-12.48
				c0.29,1.02,0.79,1.8,1.49,2.34c0.71,0.54,1.57,0.81,2.59,0.81c0.77,0,1.52-0.15,2.24-0.46c0.72-0.31,1.38-0.76,1.97-1.36
				l3.09,3.09c-0.93,1.04-2.05,1.83-3.37,2.37c-1.32,0.54-2.8,0.81-4.46,0.81c-1.92,0-3.61-0.38-5.04-1.13
				c-1.44-0.75-2.54-1.81-3.3-3.19c-0.76-1.37-1.15-2.96-1.15-4.78c0-1.84,0.39-3.46,1.16-4.86c0.77-1.4,1.87-2.49,3.29-3.25
				c1.42-0.76,3.05-1.15,4.91-1.15C151.11,60.48,153.36,61.35,154.93,63.07z M151.55,68.08c0-1.04-0.3-1.88-0.91-2.51
				c-0.61-0.63-1.41-0.95-2.41-0.95c-0.93,0-1.71,0.31-2.34,0.93c-0.63,0.62-1.05,1.46-1.24,2.52H151.55z"/>
			<path fill="#FFFFFF" d="M171.99,77.71c-0.66,0.38-1.43,0.67-2.29,0.88c-0.86,0.21-1.74,0.32-2.62,0.32c-1.77,0-3.2-0.51-4.3-1.53
				c-1.1-1.02-1.64-2.42-1.64-4.21v-7.7h-2.49v-3.92h2.49v-4.98h5.87v4.98h4.65v3.92h-4.65v6.77c0,1.26,0.52,1.89,1.56,1.89
				c0.64,0,1.4-0.2,2.29-0.6L171.99,77.71z"/>
			<path fill="#FFFFFF" d="M189.35,63.07c1.57,1.73,2.36,4.09,2.36,7.1c0,0.46-0.01,0.82-0.03,1.06h-12.48
				c0.29,1.02,0.79,1.8,1.49,2.34c0.71,0.54,1.57,0.81,2.59,0.81c0.77,0,1.52-0.15,2.24-0.46c0.72-0.31,1.38-0.76,1.97-1.36
				l3.09,3.09c-0.93,1.04-2.05,1.83-3.37,2.37c-1.32,0.54-2.8,0.81-4.46,0.81c-1.93,0-3.61-0.38-5.04-1.13
				c-1.44-0.75-2.54-1.81-3.3-3.19c-0.76-1.37-1.14-2.96-1.14-4.78c0-1.84,0.39-3.46,1.16-4.86c0.77-1.4,1.87-2.49,3.29-3.25
				c1.42-0.76,3.05-1.15,4.91-1.15C185.53,60.48,187.78,61.35,189.35,63.07z M185.96,68.08c0-1.04-0.3-1.88-0.91-2.51
				c-0.61-0.63-1.41-0.95-2.41-0.95c-0.93,0-1.71,0.31-2.34,0.93c-0.63,0.62-1.05,1.46-1.24,2.52H185.96z"/>
			<path fill="#FFFFFF" d="M202.79,65.36c-1.06,0-1.93,0.4-2.59,1.21c-0.66,0.81-1,1.85-1,3.14c0,1.31,0.33,2.36,1,3.15
				c0.66,0.8,1.53,1.19,2.59,1.19c1.64,0,2.81-0.67,3.52-2.02l4.35,2.49c-0.71,1.37-1.77,2.43-3.19,3.19
				c-1.42,0.75-3.08,1.13-4.98,1.13c-1.84,0-3.45-0.38-4.85-1.13c-1.39-0.75-2.47-1.81-3.24-3.19c-0.76-1.37-1.14-2.96-1.14-4.78
				c0-1.84,0.39-3.46,1.16-4.86c0.77-1.4,1.86-2.49,3.27-3.25c1.4-0.76,3.03-1.15,4.86-1.15c1.79,0,3.39,0.37,4.78,1.11
				c1.39,0.74,2.48,1.79,3.25,3.14l-4.28,2.49C205.47,65.98,204.29,65.36,202.79,65.36z"/>
			<path fill="#FFFFFF" d="M225.06,77.71c-0.66,0.38-1.43,0.67-2.29,0.88c-0.86,0.21-1.74,0.32-2.62,0.32c-1.77,0-3.2-0.51-4.3-1.53
				c-1.1-1.02-1.64-2.42-1.64-4.21v-7.7h-2.49v-3.92h2.49v-4.98h5.87v4.98h4.65v3.92h-4.65v6.77c0,1.26,0.52,1.89,1.56,1.89
				c0.64,0,1.4-0.2,2.29-0.6L225.06,77.71z"/>
		</g>
	</g>
</g>
</svg>
